<svg xmlns="http://www.w3.org/2000/svg" xmlns:xlink="http://www.w3.org/1999/xlink" xmlns:xodm="http://www.corel.com/coreldraw/odm/2003" xml:space="preserve" width="1600px" height="1100px" style="shape-rendering:geometricPrecision; text-rendering:geometricPrecision; image-rendering:optimizeQuality; fill-rule:evenodd; clip-rule:evenodd" viewBox="0 0 1600 1100"> <defs> <style type="text/css"> .fil3 {fill:#060000;fill-rule:nonzero} .fil0 {fill:#2D2C2A;fill-rule:nonzero} .fil1 {fill:#C2C4C1;fill-rule:nonzero} .fil2 {fill:#E2B985;fill-rule:nonzero} .fil4 {fill:#ED9683;fill-rule:nonzero} </style> </defs> <g id="Capa_x0020_1"> <metadata id="CorelCorpID_0Corel-Layer"></metadata> <g id="_2269722241600"> <path class="fil0" d="M1092.65 263.19c0,0 -48.41,138.29 -224.73,141.75 -176.31,3.46 -273.12,-238.55 -480.56,-197.06 -207.43,41.49 -394.13,179.77 -373.38,432.16 20.74,252.38 266.2,418.33 522.05,432.15 255.83,13.83 295.58,-17.28 386.34,-100.25 45.81,6.91 146.08,-3.46 218.68,-38.03 76.06,44.94 200.52,114.09 293.87,117.54 93.34,3.46 145.2,-27.66 152.12,-62.23 6.91,-34.57 -51.86,-79.52 -51.86,-79.52 0,0 38.03,-24.2 38.03,-51.86 0,-27.65 -55.32,-69.14 -114.09,-58.77 -58.77,10.37 -124.46,-6.91 -141.75,-62.23 38.03,-44.94 76.06,-114.09 44.94,-197.06 44.95,-31.12 114.1,-72.61 124.47,-145.21 10.37,-72.6 -51.86,-102.92 -34.58,-191.48 17.29,-88.56 -10.37,-147.33 -10.37,-147.33 0,0 -55.32,76.06 -62.23,114.09 -38.03,-6.91 -141.75,-24.21 -186.69,-6.91 -24.21,-41.5 -55.32,-138.3 -69.15,-138.3 -13.83,0 -34.57,114.09 -31.11,238.55z"></path> <path class="fil1" d="M674.18 987.69c-30.97,0 -51.41,-6.12 -52.46,-6.43l1.47 -4.82c1.22,0.38 124.16,36.22 222.13,-71.88 48.61,-53.65 73.66,-102.62 91.96,-138.38 19.39,-37.92 32.2,-62.97 58.56,-62.97 8.88,0 15.77,3.97 19.92,11.48 19.29,34.9 -19.09,143.65 -91.26,258.58l-4.26 -2.67c70.11,-111.65 109.29,-220.62 91.12,-253.48 -3.31,-5.97 -8.38,-8.88 -15.52,-8.88 -23.28,0 -34.88,22.67 -54.09,60.23 -18.42,36.01 -43.64,85.32 -92.7,139.47 -52.34,57.74 -111.32,74.61 -151.58,78.6 -8.26,0.82 -16.07,1.15 -23.29,1.15z"></path> <path class="fil1" d="M1474.87 927.99c-21.33,0 -48.61,-3.99 -82.55,-15.91 -99.9,-35.09 -135.22,-77.66 -136.68,-79.46l3.91 -3.16c0.09,0.1 8.97,10.89 29.89,25.82 19.31,13.77 53.13,33.99 104.54,52.05 97.9,34.39 139.17,0.8 139.57,0.46l3.26 3.83c-1.16,0.99 -20.06,16.37 -61.94,16.37z"></path> <path class="fil1" d="M750.87 901.79c-52.06,0 -97.23,-20.1 -119.87,-53.98 -14.38,-21.52 -26,-58.43 0.32,-112.08 28.41,-57.89 39.85,-111.98 34.01,-160.77 -6.9,-57.67 -38.17,-107.74 -92.94,-148.82 -33.53,-25.14 -86.66,-51.32 -149.5,-33.23 -37.69,10.86 -61.34,32.82 -61.58,33.05l-3.44 -3.66c0.98,-0.94 24.62,-22.93 63.41,-34.16 35.82,-10.37 91.64,-12.89 154.12,33.98 130.14,97.6 104.7,225.61 60.44,315.83 -20,40.75 -20.23,77.78 -0.66,107.06 23.17,34.67 73.58,54.83 128.45,51.34l0.32 5.02c-4.4,0.28 -8.77,0.42 -13.08,0.42z"></path> <path class="fil1" d="M1098.33 428.55c-15.02,-16.17 -24.14,-43 -27.1,-79.72 -2.19,-27.15 -0.01,-49.95 0.02,-50.18l5 0.49c-0.09,0.89 -8.32,89.28 25.77,125.99l-3.69 3.42z"></path> <path class="fil1" d="M1325.01 553.71c-35.75,0 -68.47,-24.16 -68.92,-24.49l3.02 -4.02c0.58,0.43 58.34,43.01 101.76,12.52l2.89 4.11c-12.37,8.69 -25.77,11.88 -38.75,11.88z"></path> <path class="fil2" d="M1141.02 314.8c0,0 33.33,-25.31 56.47,-24.02 23.16,1.3 54.06,38.53 54.06,38.53 0,0 -29.46,13.59 -58.05,9.84 -28.59,-3.76 -52.48,-24.35 -52.48,-24.35z"></path> <path class="fil3" d="M1200.55 295.9c10.65,1.4 13.93,43.9 -6.72,41.2 -20.65,-2.72 -13.54,-43.86 6.72,-41.2z"></path> <path class="fil2" d="M1352.7 319.29c0,0 32.67,-26 55.84,-25.19 23.18,0.81 55.05,37.39 55.05,37.39 0,0 -29.11,14.2 -57.79,11.05 -28.68,-3.16 -53.1,-23.25 -53.1,-23.25z"></path> <path class="fil3" d="M1411.73 299.16c10.69,1.17 15.07,43.6 -5.65,41.32 -20.71,-2.28 -14.67,-43.56 5.65,-41.32z"></path> <path class="fil4" d="M1279.46 306.26c0,0 12.98,-2.36 23.65,-1.65 10.68,0.71 26.46,3.19 25.66,8.13 -0.81,4.92 -18.66,31.62 -30.23,30.91 -11.57,-0.71 -20.34,-29.69 -19.08,-37.39z"></path> <path class="fil1" d="M1310.54 366.05c-4.72,0 -9.84,-1.02 -14.34,-3.52 -10.99,8.23 -25.84,-3.85 -26.49,-4.39l3.2 -3.88c0.13,0.11 13.45,10.92 21.31,3.36l1.46 -1.39 1.68 1.12c6.3,4.2 14.65,4.39 20.13,2.71 3.24,-0.99 5.54,-2.61 6.29,-4.46l4.65 1.91c-1.35,3.29 -4.71,5.91 -9.47,7.36 -2.44,0.75 -5.34,1.18 -8.42,1.18z"></path> <polygon class="fil1" points="1298.45,359.85 1293.48,359.03 1296.83,338.5 1301.8,339.31 "></polygon> <path class="fil1" d="M1365.52 362.08l-0.68 -4.98c2.74,-0.38 114.6,-14.33 119.36,-14.92l0.63 4.99c-1.17,0.14 -116.6,14.54 -119.31,14.91z"></path> <polygon class="fil1" points="1488.64,386.18 1378.41,372.8 1379.02,367.81 1489.24,381.19 "></polygon> <polygon class="fil1" points="1465.32,425.24 1375.63,385.23 1377.68,380.64 1467.37,420.64 "></polygon> <polygon class="fil1" points="1218.3,356.44 1104.73,341.53 1105.38,336.54 1218.95,351.45 "></polygon> <path class="fil1" d="M1118.01 385.31l-0.63 -4.99c23.55,-2.98 100.77,-12.66 104.25,-12.21l-0.56 5 -0.13 0c-4.8,0 -63.94,7.26 -102.93,12.2z"></path> <polygon class="fil1" points="1141.51,427.59 1139.35,423.05 1236.86,376.57 1239.02,381.11 "></polygon> </g> </g> </svg>